Gait_normal_05_analogdata.mot
version=1
nRows=33
nColumns=19
inDegrees=yes
endheader
time	1_ground_force_vx	1_ground_force_vy	1_ground_force_vz	1_ground_force_px	1_ground_force_py	1_ground_force_pz	1_ground_torque_x	1_ground_torque_y	1_ground_torque_z	2_ground_force_vx	2_ground_force_vy	2_ground_force_vz	2_ground_force_px	2_ground_force_py	2_ground_force_pz	2_ground_torque_x	2_ground_torque_y	2_ground_torque_z
0.000000	0.000000	0.000000	-0.000000	-0.200000	0.000000	-0.300000	0.000000	0.000000	-0.000000	0.000000	0.000000	-0.000000	-0.200000	0.000000	0.302000	0.000000	0.000000	-0.000000
0.001000	0.000000	0.000000	-0.000000	-0.200000	0.000000	-0.300000	0.000000	0.000000	-0.000000	0.000000	0.000000	-0.000000	-0.200000	0.000000	0.302000	0.000000	0.000000	-0.000000
0.002000	0.000000	0.000000	-0.000000	-0.200000	0.000000	-0.300000	0.000000	0.000000	-0.000000	0.000000	0.000000	-0.000000	-0.200000	0.000000	0.302000	0.000000	0.000000	-0.000000
0.003000	0.000000	0.000000	-0.000000	-0.200000	0.000000	-0.300000	0.000000	0.000000	-0.000000	0.000000	0.000000	-0.000000	-0.200000	0.000000	0.302000	0.000000	0.000000	-0.000000
0.004000	0.000000	0.000000	-0.000000	-0.200000	0.000000	-0.300000	0.000000	0.000000	-0.000000	0.000000	0.000000	-0.000000	-0.200000	0.000000	0.302000	0.000000	0.000000	-0.000000
0.005000	0.000000	0.000000	-0.000000	-0.200000	0.000000	-0.300000	0.000000	0.000000	-0.000000	0.000000	0.000000	-0.000000	-0.200000	0.000000	0.302000	0.000000	0.000000	-0.000000
0.006000	0.000000	0.000000	-0.000000	-0.200000	0.000000	-0.300000	0.000000	0.000000	-0.000000	0.000000	0.000000	-0.000000	-0.200000	0.000000	0.302000	0.000000	0.000000	-0.000000
0.007000	0.118127	0.000000	0.321761	-0.289424	0.000000	-0.064782	0.000674	-0.028896	0.001835	0.000000	0.000000	-0.000000	-0.200000	0.000000	0.302000	0.000000	0.000000	-0.000000
0.008000	0.296298	0.000000	1.294923	-0.198780	0.000000	-0.282499	-0.000966	0.042735	-0.004220	0.000000	0.000000	-0.000000	-0.200000	0.000000	0.302000	0.000000	0.000000	-0.000000
0.009000	0.000000	0.000000	-0.000000	-0.200000	0.000000	-0.300000	0.000000	0.000000	-0.000000	0.000000	0.000000	-0.000000	-0.200000	0.000000	0.302000	0.000000	0.000000	-0.000000
0.010000	0.000000	0.000000	-0.000000	-0.200000	0.000000	-0.300000	0.000000	0.000000	-0.000000	0.000000	0.000000	-0.000000	-0.200000	0.000000	0.302000	0.000000	0.000000	-0.000000
0.011000	0.000000	0.000000	-0.000000	-0.200000	0.000000	-0.300000	0.000000	0.000000	-0.000000	0.000000	0.000000	-0.000000	-0.200000	0.000000	0.302000	0.000000	0.000000	-0.000000
0.012000	0.000000	0.000000	-0.000000	-0.200000	0.000000	-0.300000	0.000000	0.000000	-0.000000	0.000000	0.000000	-0.000000	-0.200000	0.000000	0.302000	0.000000	0.000000	-0.000000
0.013000	0.000000	0.000000	-0.000000	-0.200000	0.000000	-0.300000	0.000000	0.000000	-0.000000	0.000000	0.000000	-0.000000	-0.200000	0.000000	0.302000	0.000000	0.000000	-0.000000
0.014000	0.000000	0.000000	-0.000000	-0.200000	0.000000	-0.300000	0.000000	0.000000	-0.000000	0.000000	0.000000	-0.000000	-0.200000	0.000000	0.302000	0.000000	0.000000	-0.000000
0.015000	0.000000	0.000000	-0.000000	-0.200000	0.000000	-0.300000	0.000000	0.000000	-0.000000	0.000000	0.000000	-0.000000	-0.200000	0.000000	0.302000	0.000000	0.000000	-0.000000
0.016000	0.474470	0.000000	0.587169	-0.233351	0.000000	-0.261309	0.005457	-0.066313	0.006753	0.000000	0.000000	-0.000000	-0.200000	0.000000	0.302000	0.000000	0.000000	-0.000000
0.017000	0.000000	0.000000	-0.000000	-0.200000	0.000000	-0.300000	0.000000	0.000000	-0.000000	0.000000	0.000000	-0.000000	-0.200000	0.000000	0.302000	0.000000	0.000000	-0.000000
0.018000	0.000000	0.000000	-0.000000	-0.200000	0.000000	-0.300000	0.000000	0.000000	-0.000000	0.000000	0.000000	-0.000000	-0.200000	0.000000	0.302000	0.000000	0.000000	-0.000000
0.019000	0.000000	0.000000	-0.000000	-0.200000	0.000000	-0.300000	0.000000	0.000000	-0.000000	0.000000	0.000000	-0.000000	-0.200000	0.000000	0.302000	0.000000	0.000000	-0.000000
0.020000	0.000000	0.000000	-0.000000	-0.200000	0.000000	-0.300000	0.000000	0.000000	-0.000000	0.000000	0.000000	-0.000000	-0.200000	0.000000	0.302000	0.000000	0.000000	-0.000000
0.021000	0.000000	0.000000	-0.000000	-0.200000	0.000000	-0.300000	0.000000	0.000000	-0.000000	0.000000	0.000000	-0.000000	-0.200000	0.000000	0.302000	0.000000	0.000000	-0.000000
0.022000	0.000000	0.000000	-0.000000	-0.200000	0.000000	-0.300000	0.000000	0.000000	-0.000000	0.000000	0.000000	-0.000000	-0.200000	0.000000	0.302000	0.000000	0.000000	-0.000000
0.023000	0.000000	0.000000	-0.000000	-0.200000	0.000000	-0.300000	0.000000	0.000000	-0.000000	0.000000	0.000000	-0.000000	-0.200000	0.000000	0.302000	0.000000	0.000000	-0.000000
0.024000	0.000000	0.000000	-0.000000	-0.200000	0.000000	-0.300000	0.000000	0.000000	-0.000000	0.000000	0.000000	-0.000000	-0.200000	0.000000	0.302000	0.000000	0.000000	-0.000000
0.025000	0.385384	0.000000	1.029515	-0.201688	0.000000	-0.244854	-0.001262	-0.032684	-0.003371	0.000000	0.000000	-0.000000	-0.200000	0.000000	0.302000	0.000000	0.000000	-0.000000
0.026000	0.000000	0.000000	-0.000000	-0.200000	0.000000	-0.300000	0.000000	0.000000	-0.000000	0.000000	0.000000	-0.000000	-0.200000	0.000000	0.302000	0.000000	0.000000	-0.000000
0.027000	0.000000	0.000000	-0.000000	-0.200000	0.000000	-0.300000	0.000000	0.000000	-0.000000	0.000000	0.000000	-0.000000	-0.200000	0.000000	0.302000	0.000000	0.000000	-0.000000
0.028000	0.000000	0.000000	-0.000000	-0.200000	0.000000	-0.300000	0.000000	0.000000	-0.000000	0.000000	0.000000	-0.000000	-0.200000	0.000000	0.302000	0.000000	0.000000	-0.000000
0.029000	0.000000	0.000000	-0.000000	-0.200000	0.000000	-0.300000	0.000000	0.000000	-0.000000	0.000000	0.000000	-0.000000	-0.200000	0.000000	0.302000	0.000000	0.000000	-0.000000
0.030000	0.000000	0.000000	-0.000000	-0.200000	0.000000	-0.300000	0.000000	0.000000	-0.000000	0.000000	0.000000	-0.000000	-0.200000	0.000000	0.302000	0.000000	0.000000	-0.000000
0.031000	-0.060045	0.000000	0.498700	-0.155964	0.000000	-0.363320	-0.001424	0.120535	0.011829	0.000000	0.000000	-0.000000	-0.200000	0.000000	0.302000	0.000000	0.000000	-0.000000
0.032000	0.000000	0.000000	-0.000000	-0.200000	0.000000	-0.300000	0.000000	0.000000	-0.000000	0.000000	0.000000	-0.000000	-0.200000	0.000000	0.302000	0.000000	0.000000	-0.000000
